<svg xmlns="http://www.w3.org/2000/svg" viewBox="0 0 495 495" fill="none">
  <circle cx="247.5" cy="247.5" r="230.5" stroke="#003399" stroke-width="34"/>
  <path d="M135.327 283H135.326L114.008 249.021L114.007 249.019L135.327 283ZM167.323 140.75C134.941 165.109 113.999 203.859 113.999 247.5C113.999 248.007 114.002 248.513 114.007 249.019L105.652 235.699C79.7469 194.408 109.427 140.75 158.171 140.75H167.323Z" fill="#FDB913"/>
  <circle cx="247.5" cy="247.5" r="133" fill="#003399" stroke="black"/>
  <path d="M335.829 140.75C384.573 140.75 414.253 194.408 388.349 235.699L358.046 284H358.045L380.999 247.413C380.971 203.807 360.037 165.093 327.677 140.75H335.829Z" fill="#006A44"/>
  <path d="M299.521 377.287C275.22 416.021 218.781 416.021 194.48 377.287L188.074 367.076C205.971 375.987 226.15 381 247.5 381C268.277 381 287.946 376.253 305.48 367.785L329.813 329H329.814L299.521 377.287Z" fill="#C1272D"/>
</svg>
